<?xml version="1.0" encoding="UTF-8" standalone="no"?>

<svg
   version="1.1"
   id="svg1"
   width="100%"
   viewBox="0 0 864 139.2"
   xmlns="http://www.w3.org/2000/svg"
   xmlns:svg="http://www.w3.org/2000/svg">
  <defs
     id="defs1" />
  <g
     id="g1">
    <path
       id="path1"
       d="M 0.24907,0.24907 V 104.15204 H 647.75928 V 0.24907 Z"
       style="fill:none;stroke:#f0f6fc;stroke-width:0.49814;stroke-linecap:butt;stroke-linejoin:miter;stroke-miterlimit:10;stroke-dasharray:none;stroke-opacity:1"
       transform="matrix(1.3333333,0,0,-1.3333333,0,139.2)" />
    <path
       id="path2"
       d="m 10.290016,-17.15675 c -0.128907,0 -0.222657,0.105469 -0.222657,0.222656 v 0.644532 c 0,0.128906 0.09375,0.222656 0.222657,0.222656 0.421875,0 0.738281,0 1.007812,0.03516 0.621094,0.02344 0.75,0.199219 0.75,0.867188 v 5.8242183 H 5.1103281 v -5.8242183 c 0,-0.398438 0,-0.726563 0.2929688,-0.820313 0.421875,-0.128906 0.84375,-0.08203 1.4648437,-0.08203 0.1171875,0 0.2226563,-0.09375 0.2226563,-0.222656 v -0.644532 c 0,-0.117187 -0.1054688,-0.222656 -0.2226563,-0.222656 -0.7148437,0 -2.0390625,0.05859 -2.8007812,0.05859 -0.7734375,0 -2.0859375,-0.05859 -2.8007813,-0.05859 -0.1289062,0 -0.2226562,0.105469 -0.2226562,0.222656 v 0.644532 c 0,0.128906 0.09375,0.222656 0.2226562,0.222656 0.421875,0 0.7382813,0 1.0195313,0.03516 0.609375,0.02344 0.7382812,0.199219 0.7382812,0.867188 v 13.4062495 c 0,0.3984375 0,0.7148438 -0.2929687,0.8203125 -0.421875,0.1171875 -0.84375,0.0703125 -1.4648438,0.0703125 -0.1289062,0 -0.2226562,0.09375 -0.2226562,0.22265625 V -5e-4 c 0,0.12890625 0.09375,0.22265625 0.2226562,0.22265625 0.7148438,0 2.0273438,-0.046875 2.8007813,-0.046875 0.7617187,0 2.0859375,0.046875 2.8007812,0.046875 0.1171875,0 0.2226563,-0.09375 0.2226563,-0.22265625 v -0.64453125 c 0,-0.12890625 -0.1054688,-0.22265625 -0.2226563,-0.22265625 -0.421875,0 -0.75,0 -1.0195312,-0.0234375 C 5.2275156,-0.9145625 5.1103281,-1.0903437 5.1103281,-1.7583125 V -8.2505 h 6.9374999 v 6.4921875 c 0,0.3984375 0,0.7148438 -0.292969,0.8203125 -0.421875,0.1171875 -0.84375,0.0703125 -1.464843,0.0703125 -0.128907,0 -0.222657,0.09375 -0.222657,0.22265625 V -5e-4 c 0,0.12890625 0.09375,0.22265625 0.222657,0.22265625 0.714843,0 2.027343,-0.046875 2.800781,-0.046875 0.761719,0 2.074219,0 2.777344,0.046875 0.02344,0 0.02344,0 0.02344,0 0.117188,0 0.222656,-0.09375 0.222656,-0.22265625 v -0.64453125 c 0,-0.12890625 -0.105468,-0.22265625 -0.222656,-0.22265625 -0.421875,0 -0.75,0 -1.019531,-0.0234375 -0.621094,-0.0234375 -0.738281,-0.1992187 -0.738281,-0.8671875 V -15.164562 c 0,-0.398438 0,-0.726563 0.292968,-0.820313 0.421875,-0.128906 0.84375,-0.08203 1.464844,-0.08203 0.117188,0 0.222656,-0.09375 0.222656,-0.222656 v -0.644532 c 0,-0.117187 -0.105468,-0.222656 -0.222656,-0.222656 -0.726562,0 -2.039062,0.05859 -2.800781,0.05859 -0.773438,0 -2.085938,-0.05859 -2.800781,-0.05859 z m 9.987304,0.949219 c -0.714843,0 -1.230468,0.539062 -1.230468,1.242187 0,0.714844 0.539062,1.230469 1.207031,1.230469 0.726562,0 1.242187,-0.539062 1.242187,-1.230469 0,-0.726562 -0.550781,-1.242187 -1.21875,-1.242187 z m 2.214844,16.42968725 c 0.117188,0 0.222656,-0.09375 0.222656,-0.22265625 v -0.64453125 c 0,-0.12890625 -0.105468,-0.22265625 -0.222656,-0.22265625 -0.351562,0 -0.621094,0 -0.820312,-0.0234375 -0.46875,-0.0703125 -0.46875,-0.2695312 -0.46875,-0.796875 v -9.164062 c 0,-0.128907 -0.105469,-0.222657 -0.222657,-0.222657 0,0 -0.03516,0 -0.03516,0 l -2.847656,0.269532 c -0.09375,0 -0.199219,0.09375 -0.199219,0.222656 V -9.938 c 0,0.1171875 0.105469,0.2226563 0.222656,0.2226563 0.351563,0 0.597657,0 0.796875,0.046875 0.574219,0.070312 0.574219,0.421875 0.574219,1.0664062 v 6.890625 c 0,0.1523438 0,0.2929688 -0.02344,0.3984375 -0.05859,0.59765625 -0.773438,0.4453125 -1.441407,0.4453125 -0.128906,0 -0.222656,0.09375 -0.222656,0.22265625 V -5e-4 c 0,0.12890625 0.09375,0.22265625 0.222656,0.22265625 0.597657,0 1.664063,-0.046875 2.273438,-0.046875 0.597656,0 1.617187,0.046875 2.191406,0.046875 z M 26.46775,-2.2505 c -0.714844,0 -1.230469,0.4921875 -1.230469,1.2304688 0,0.74999995 0.515625,1.24218745 1.230469,1.24218745 0.257813,0 0.480469,-0.0703125 0.644531,-0.17578125 0,0.08203125 0,0.15234375 0,0.24609375 0,1.73437505 -0.585937,2.88281255 -1.488281,3.94921875 -0.09375,0.1171875 -0.164062,0.2226563 -0.164062,0.3632813 0,0.2226562 0.199218,0.421875 0.421875,0.421875 0.09375,0 0.140625,-0.046875 0.199218,-0.070312 0.316407,-0.2460938 0.515625,-0.515625 0.808594,-0.9960938 0.527344,-0.8085937 1.066406,-2.0507812 1.066406,-3.64453125 0,-1.23046875 -0.246093,-2.56640625 -1.488281,-2.56640675 z m 11.742188,-14.90625 c -0.117188,0 -0.222657,0.105469 -0.222657,0.222656 v 0.644532 c 0,0.128906 0.105469,0.222656 0.222657,0.222656 0.445312,0 0.796875,0 1.066406,0.03516 0.644531,0.02344 0.796875,0.164063 0.796875,0.867188 v 13.4062495 c 0,0.421875 -0.02344,0.7148438 -0.316406,0.796875 -0.457032,0.140625 -0.867188,0.09375 -1.546875,0.09375 -0.117188,0 -0.222657,0.09375 -0.222657,0.22265625 V -5e-4 c 0,0.12890625 0.105469,0.22265625 0.222657,0.22265625 0.796875,0 2.0625,-0.046875 2.90625,-0.046875 0.84375,0 2.109375,0 2.871093,0.046875 0.02344,0 0.02344,0 0.02344,0 0.128906,0 0.222656,-0.09375 0.222656,-0.22265625 v -0.64453125 c 0,-0.12890625 -0.09375,-0.22265625 -0.222656,-0.22265625 -0.445313,0 -0.785156,0 -1.066406,-0.0234375 -0.644532,-0.0234375 -0.785157,-0.1757812 -0.785157,-0.8671875 V -15.164562 c 0,-0.421875 0.02344,-0.726563 0.316407,-0.796875 0.445312,-0.152344 0.867187,-0.105469 1.535156,-0.105469 0.128906,0 0.222656,-0.09375 0.222656,-0.222656 v -0.644532 c 0,-0.117187 -0.09375,-0.222656 -0.222656,-0.222656 -0.785156,0 -2.050781,0.05859 -2.894531,0.05859 -0.84375,0 -2.109375,-0.05859 -2.90625,-0.05859 z m 10.054687,-0.269531 c -0.714844,0 -1.230469,0.492187 -1.230469,1.242187 0,0.738282 0.515625,1.242188 1.230469,1.242188 0.28125,0 0.527344,-0.08203 0.726563,-0.199219 0,0.07031 0,0.175781 0,0.292969 0,1.617187 -0.703125,2.976562 -1.511719,3.867187 -0.128906,0.105469 -0.222656,0.222657 -0.222656,0.421875 0,0.222657 0.199218,0.421875 0.421875,0.421875 0.09375,0 0.140625,-0.04687 0.199218,-0.07031 0.339844,-0.257813 0.5625,-0.527344 0.867188,-0.996094 0.515625,-0.796875 1.089844,-2.0625 1.089844,-3.621094 0,-1.207031 -0.304688,-2.601562 -1.570313,-2.601562 z m 16.675781,6.351562 c -1.640625,0 -2.671875,0.9375 -3.246093,2.0039065 -0.421875,-1.3124995 -1.511719,-2.0039065 -3.222657,-2.0039065 -1.558593,0 -2.554687,0.867188 -3.152343,1.8281253 v -1.6054683 c 0,-0.128907 -0.09375,-0.222657 -0.222657,-0.222657 0,0 -0.02344,0 -0.02344,0 l -2.917969,0.269532 c -0.105469,0 -0.199219,0.09375 -0.199219,0.222656 V -9.938 c 0,0.1171875 0.09375,0.2226563 0.222657,0.2226563 0.339843,0 0.644531,0 0.84375,0.046875 0.585937,0.070312 0.621093,0.3984375 0.621093,1.0664062 v 6.890625 c 0,0.1523438 0,0.2929688 -0.03516,0.3984375 -0.04687,0.59765625 -0.761719,0.4453125 -1.429687,0.4453125 -0.128907,0 -0.222657,0.09375 -0.222657,0.22265625 V -5e-4 c 0,0.12890625 0.09375,0.22265625 0.222657,0.22265625 0.597656,0 1.6875,-0.046875 2.332031,-0.046875 0.644531,0 1.757812,0.046875 2.355469,0.046875 0.117187,0 0.222656,-0.09375 0.222656,-0.22265625 v -0.64453125 c 0,-0.12890625 -0.105469,-0.22265625 -0.222656,-0.22265625 -0.398438,0 -0.703125,0 -0.902344,-0.0234375 -0.539063,-0.046875 -0.5625,-0.2460937 -0.5625,-0.8203125 V -6.46925 c 0,-0.6210937 0.09375,-1.21875 0.292969,-1.7109375 0.398437,-1.0429687 1.242187,-2.0507815 2.601562,-2.0507815 1.464844,0 1.816406,1.136719 1.816406,2.6015628 v 5.9179687 c 0,0.1523438 0,0.2929688 -0.03516,0.3984375 -0.04687,0.59765625 -0.761719,0.4453125 -1.429687,0.4453125 -0.128907,0 -0.222657,0.09375 -0.222657,0.22265625 V -5e-4 c 0,0.12890625 0.09375,0.22265625 0.222657,0.22265625 0.597656,0 1.6875,-0.046875 2.332031,-0.046875 0.644531,0 1.757812,0.046875 2.355469,0.046875 0.117187,0 0.222656,-0.09375 0.222656,-0.22265625 v -0.64453125 c 0,-0.12890625 -0.105469,-0.22265625 -0.222656,-0.22265625 -0.398438,0 -0.703125,0 -0.902344,-0.0234375 -0.539063,-0.046875 -0.5625,-0.2460937 -0.5625,-0.8203125 V -6.46925 c 0,-0.6210937 0.09375,-1.21875 0.292969,-1.7109375 0.398437,-1.0429687 1.242187,-2.0507815 2.601562,-2.0507815 1.464844,0 1.816406,1.136719 1.816406,2.6015628 v 5.9179687 c 0,0.1523438 0,0.2929688 -0.03516,0.3984375 -0.04687,0.59765625 -0.761719,0.4453125 -1.429688,0.4453125 -0.128906,0 -0.222656,0.09375 -0.222656,0.22265625 V -5e-4 c 0,0.12890625 0.09375,0.22265625 0.222656,0.22265625 0.597657,0 1.6875,-0.046875 2.332032,-0.046875 0.644531,0 1.757812,0 2.320312,0.046875 0,0 0.03516,0 0.03516,0 0.117188,0 0.222657,-0.09375 0.222657,-0.22265625 v -0.64453125 c 0,-0.12890625 -0.105469,-0.22265625 -0.222657,-0.22265625 -0.398437,0 -0.703125,0 -0.902343,-0.0234375 -0.539063,-0.046875 -0.5625,-0.2460937 -0.5625,-0.8203125 v -5.8242187 c 0,-2.3085938 -1.042969,-3.5390628 -3.398438,-3.5390628 z M 85.34275,0.22215625 c 0.128906,0 0.222656,-0.09375 0.222656,-0.22265625 v -0.64453125 c 0,-0.12890625 -0.09375,-0.22265625 -0.222656,-0.22265625 h -0.539063 c -0.480468,0 -0.820312,-0.0234375 -1.066406,-0.046875 C 83.1865,-0.99659375 83.09275,-1.1606562 83.09275,-1.78175 v -6.1289062 h 2.003906 c 0.292969,0 0.574219,0.023437 0.820313,0.058594 1.359375,0.1640625 1.488281,1.0546875 1.488281,2.625 0,0.1171875 0.09375,0.2226563 0.222656,0.2226563 h 0.445313 c 0.117187,0 0.222656,-0.1054688 0.222656,-0.2226563 v -6.4453128 c 0,-0.128906 -0.105469,-0.222656 -0.222656,-0.222656 h -0.445313 c -0.128906,0 -0.222656,0.09375 -0.222656,0.222656 0,0.820313 0,1.488281 -0.28125,1.9570316 C 86.807594,-9.1176875 86.034156,-9.0005 85.096656,-9.0005 H 83.09275 v -6.269531 c 0,-0.222656 0,-0.445313 0.04687,-0.597656 0.09375,-0.199219 0.445312,-0.140625 0.761719,-0.140625 h 3.199218 c 0.925782,0 1.617188,0.09375 2.132813,0.269531 1.734375,0.574219 1.933594,2.25 2.15625,4.359375 0.02344,0.105469 0.105469,0.199219 0.222656,0.199219 h 0.445313 c 0.128906,0 0.222656,-0.09375 0.222656,-0.222657 0,0 0,-0.02344 0,-0.02344 l -0.585938,-5.472656 c -0.03516,-0.105469 -0.105468,-0.199219 -0.222656,-0.199219 H 79.249 c -0.128906,0 -0.222656,0.09375 -0.222656,0.222656 v 0.644531 c 0,0.117188 0.09375,0.222657 0.222656,0.222657 0.421875,0 0.738281,0 1.019531,0.02344 0.609375,0.02344 0.738281,0.199219 0.738281,0.867188 v 13.3593745 c 0,0.3984375 0,0.7148438 -0.292968,0.8203125 -0.421875,0.1171875 -0.84375,0.0703125 -1.464844,0.0703125 -0.128906,0 -0.222656,0.09375 -0.222656,0.22265625 V -5e-4 c 0,0.12890625 0.09375,0.22265625 0.222656,0.22265625 0.714844,0 2.109375,-0.046875 2.871094,-0.046875 1.019531,0 2.203125,0.046875 3.222656,0.046875 z M 93.434547,-2.2505 c 0,-0.234375 0.02344,-0.5273437 0.117187,-0.8203125 0.515625,-1.7578125 2.425782,-2.4609375 4.535157,-2.6015625 v 2.2265625 c 0,1.1132813 -0.445313,1.9335938 -1.042969,2.4257813 -0.398438,0.32812495 -0.984375,0.5976562 -1.628906,0.5976562 -1.089844,0 -1.980469,-0.7382812 -1.980469,-1.828125 z m 7.207033,1.55859375 c -0.867189,0 -0.796877,-1.26562495 -0.796877,-2.15624995 v -3.5976563 c 0,-0.4921875 0,-0.9140625 -0.02344,-1.3125 -0.09375,-1.0898437 -0.445313,-1.7109375 -1.089844,-2.3085935 -0.9375,-0.867188 -2.109375,-1.113281 -2.976563,-1.113281 -1.382812,0 -2.519531,0.714843 -3.117187,1.7343745 -0.304688,0.4921875 -0.46875,1.0664063 -0.46875,1.6640625 0,0.7148438 0.421875,1.1835938 1.113281,1.1835938 0.644531,0 1.113281,-0.4453125 1.113281,-1.1132813 0,-0.6679687 -0.445312,-1.0898437 -1.066406,-1.1132812 0.398438,-0.8203125 1.242188,-1.5117183 2.378906,-1.5117183 1.3125,0 2.378907,1.289062 2.378907,2.9531245 v 0.8671875 c -1.664063,0.070312 -3.292969,0.3632813 -4.488282,1.0078125 -1.113281,0.5976563 -2.132812,1.7109375 -2.132812,3.2578125 0,0.2929688 0.05859,0.5859375 0.152344,0.8320313 0.46875,1.21874995 1.957031,1.8398437 3.621093,1.8398437 1.40625,0 2.472657,-0.73828125 3.070313,-1.6875 0.246094,0.8203125 0.867187,1.58203125 1.933596,1.58203125 0.15234,0 0.35156,-0.0234375 0.57422,-0.09375 0.96094,-0.29296875 1.48828,-1.13671875 1.48828,-2.42578125 v -1.3945312 c 0,-0.1171875 -0.10547,-0.2226563 -0.22266,-0.2226563 h -0.44531 c -0.1289,0 -0.22265,0.1054688 -0.22265,0.2226563 v 1.4179687 c 0,0.7148438 -0.12891,1.48828125 -0.77344,1.48828125 z m 8.29687,-10.38281275 c -1.4414,0 -2.26172,0.914063 -2.7539,1.8281253 v -1.6054683 c 0,-0.128907 -0.10547,-0.222657 -0.22266,-0.222657 0,0 -0.0234,0 -0.0234,0 l -2.88281,0.269532 c -0.0937,0 -0.1875,0.09375 -0.1875,0.222656 V -9.938 c 0,0.1171875 0.0937,0.2226563 0.22266,0.2226563 0.33984,0 0.64453,0 0.83203,0.046875 0.59765,0.070312 0.62109,0.3984375 0.62109,1.0664062 v 6.890625 c 0,0.1523438 0,0.2929688 -0.0234,0.3984375 -0.0469,0.59765625 -0.76171,0.4453125 -1.42968,0.4453125 -0.12891,0 -0.22266,0.09375 -0.22266,0.22265625 V -5e-4 c 0,0.12890625 0.0937,0.22265625 0.22266,0.22265625 0.5625,0 1.73437,-0.046875 2.3789,-0.046875 0.71485,0 1.98047,0.046875 2.64844,0.046875 0.11719,0 0.22266,-0.09375 0.22266,-0.22265625 v -0.64453125 c 0,-0.12890625 -0.10547,-0.22265625 -0.22266,-0.22265625 -0.44531,0 -0.79687,0 -1.06641,-0.0234375 -0.64453,-0.0234375 -0.79687,-0.1757812 -0.79687,-0.8671875 v -4.0898437 c 0,-1.5351563 0.44531,-3 1.24219,-3.796875 0.32812,-0.3164063 0.79687,-0.5859378 1.38281,-0.5859378 -0.11719,0.164063 -0.22266,0.386719 -0.22266,0.6914065 0,0.6445313 0.45703,1.0664063 1.06641,1.0664063 0.64453,0 1.06641,-0.4453125 1.06641,-1.0898438 0,-0.972656 -0.89063,-1.511719 -1.85157,-1.511719 z m 9.26953,0 c -1.53515,0 -2.53125,0.84375 -3.11718,1.7812503 v -7.9101563 c 0,-0.117187 -0.10547,-0.222656 -0.23438,-0.222656 0,0 -0.0234,0 -0.0234,0 l -2.9414,0.269531 c -0.10547,0 -0.19922,0.105469 -0.19922,0.222656 v 0.644532 c 0,0.128906 0.0937,0.222656 0.22266,0.222656 0.33984,0 0.64453,0 0.84375,0.05859 0.58593,0.07031 0.62109,0.398437 0.62109,1.066406 v 13.2304685 c 0,0.1523438 0,0.2929688 -0.0352,0.3984375 -0.0469,0.59765625 -0.76172,0.4453125 -1.42968,0.4453125 -0.12891,0 -0.22266,0.09375 -0.22266,0.22265625 V -5e-4 c 0,0.12890625 0.0937,0.22265625 0.22266,0.22265625 0.59765,0 1.6875,-0.046875 2.33203,-0.046875 0.64453,0 1.75781,0.046875 2.35547,0.046875 0.11718,0 0.22265,-0.09375 0.22265,-0.22265625 v -0.64453125 c 0,-0.12890625 -0.10547,-0.22265625 -0.22265,-0.22265625 -0.39844,0 -0.70313,0 -0.90235,-0.0234375 -0.53906,-0.046875 -0.5625,-0.2460937 -0.5625,-0.8203125 V -6.46925 c 0,-0.6210937 0.0937,-1.21875 0.29297,-1.7109375 0.39844,-1.0429687 1.24219,-2.0507815 2.60156,-2.0507815 1.46485,0 1.81641,1.136719 1.81641,2.6015628 v 5.9179687 c 0,0.1523438 0,0.2929688 -0.0352,0.3984375 -0.0469,0.59765625 -0.76172,0.4453125 -1.42968,0.4453125 -0.12891,0 -0.22266,0.09375 -0.22266,0.22265625 V -5e-4 c 0,0.12890625 0.0937,0.22265625 0.22266,0.22265625 0.59765,0 1.6875,-0.046875 2.33203,-0.046875 0.64453,0 1.75781,0 2.32031,0.046875 0,0 0.0352,0 0.0352,0 0.11718,0 0.22265,-0.09375 0.22265,-0.22265625 v -0.64453125 c 0,-0.12890625 -0.10547,-0.22265625 -0.22265,-0.22265625 -0.39844,0 -0.70313,0 -0.90235,-0.0234375 -0.53906,-0.046875 -0.5625,-0.2460937 -0.5625,-0.8203125 v -5.8242187 c 0,-2.2851563 -1.0664,-3.5390628 -3.39844,-3.5390628 z m 8.03321,8.824219 c 0,-0.234375 0.0234,-0.5273437 0.11718,-0.8203125 0.51563,-1.7578125 2.42579,-2.4609375 4.53516,-2.6015625 v 2.2265625 c 0,1.1132813 -0.44531,1.9335938 -1.04297,2.4257813 -0.39844,0.32812495 -0.98437,0.5976562 -1.6289,0.5976562 -1.08985,0 -1.98047,-0.7382812 -1.98047,-1.828125 z m 7.20703,1.55859375 c -0.86719,0 -0.79688,-1.26562495 -0.79688,-2.15624995 v -3.5976563 c 0,-0.4921875 0,-0.9140625 -0.0234,-1.3125 -0.0937,-1.0898437 -0.44532,-1.7109375 -1.08985,-2.3085935 -0.9375,-0.867188 -2.10937,-1.113281 -2.97656,-1.113281 -1.38281,0 -2.51953,0.714843 -3.11719,1.7343745 -0.30469,0.4921875 -0.46875,1.0664063 -0.46875,1.6640625 0,0.7148438 0.42188,1.1835938 1.11328,1.1835938 0.64453,0 1.11328,-0.4453125 1.11328,-1.1132813 0,-0.6679687 -0.44531,-1.0898437 -1.0664,-1.1132812 0.39844,-0.8203125 1.24219,-1.5117183 2.3789,-1.5117183 1.3125,0 2.37891,1.289062 2.37891,2.9531245 v 0.8671875 c -1.66406,0.070312 -3.29297,0.3632813 -4.48828,1.0078125 -1.11328,0.5976563 -2.13281,1.7109375 -2.13281,3.2578125 0,0.2929688 0.0586,0.5859375 0.15234,0.8320313 0.46875,1.21874995 1.95703,1.8398437 3.62109,1.8398437 1.40625,0 2.47266,-0.73828125 3.07032,-1.6875 0.24609,0.8203125 0.86718,1.58203125 1.93359,1.58203125 0.15234,0 0.35156,-0.0234375 0.57422,-0.09375 0.96094,-0.29296875 1.48828,-1.13671875 1.48828,-2.42578125 v -1.3945312 c 0,-0.1171875 -0.10547,-0.2226563 -0.22266,-0.2226563 h -0.44531 c -0.1289,0 -0.22265,0.1054688 -0.22265,0.2226563 v 1.4179687 c 0,0.7148438 -0.12891,1.48828125 -0.77344,1.48828125 z m 13.65234,0.9140625 c 0.11719,0 0.22266,-0.09375 0.22266,-0.22265625 v -0.64453125 c 0,-0.12890625 -0.10547,-0.22265625 -0.22266,-0.22265625 -0.39844,0 -0.70312,0 -0.90234,-0.0234375 -0.53906,-0.046875 -0.5625,-0.2460937 -0.5625,-0.8203125 v -5.8242187 c 0,-2.2851563 -1.06641,-3.5390628 -3.39844,-3.5390628 -1.55859,0 -2.55469,0.867188 -3.15234,1.8281253 v -1.6054683 c 0,-0.128907 -0.0937,-0.222657 -0.22266,-0.222657 0,0 -0.0234,0 -0.0234,0 l -2.91797,0.269532 c -0.10546,0 -0.19921,0.09375 -0.19921,0.222656 V -9.938 c 0,0.1171875 0.0937,0.2226563 0.22265,0.2226563 0.33985,0 0.64453,0 0.84375,0.046875 0.58594,0.070312 0.6211,0.3984375 0.6211,1.0664062 v 6.890625 c 0,0.1523438 0,0.2929688 -0.0352,0.3984375 -0.0469,0.59765625 -0.76172,0.4453125 -1.42969,0.4453125 -0.1289,0 -0.22265,0.09375 -0.22265,0.22265625 V -5e-4 c 0,0.12890625 0.0937,0.22265625 0.22265,0.22265625 0.59766,0 1.6875,-0.046875 2.33203,-0.046875 0.64453,0 1.75782,0.046875 2.35547,0.046875 0.11719,0 0.22266,-0.09375 0.22266,-0.22265625 v -0.64453125 c 0,-0.12890625 -0.10547,-0.22265625 -0.22266,-0.22265625 -0.39844,0 -0.70312,0 -0.90234,-0.0234375 -0.53906,-0.046875 -0.5625,-0.2460937 -0.5625,-0.8203125 V -6.46925 c 0,-0.6210937 0.0937,-1.21875 0.29297,-1.7109375 0.39843,-1.0429687 1.24218,-2.0507815 2.60156,-2.0507815 1.46484,0 1.81641,1.136719 1.81641,2.6015628 v 5.9179687 c 0,0.1523438 0,0.2929688 -0.0352,0.3984375 -0.0469,0.59765625 -0.76172,0.4453125 -1.42969,0.4453125 -0.1289,0 -0.22265,0.09375 -0.22265,0.22265625 V -5e-4 c 0,0.12890625 0.0937,0.22265625 0.22265,0.22265625 0.59766,0 1.6875,-0.046875 2.33203,-0.046875 0.64453,0 1.75782,0.046875 2.35547,0.046875 z m 15.86133,-9.11718745 h -2.60156 v -6.4218748 c 0,-0.222656 0,-0.445313 0.0469,-0.597656 0.0937,-0.199219 0.44532,-0.152344 0.76172,-0.152344 h 1.81641 c 2.51953,0 4.23047,1.019531 4.23047,3.574219 0,2.554687 -1.75782,3.5976558 -4.25391,3.5976558 z m 8.98828,6.2695312 c -0.26953,0 -0.44531,0.1757813 -0.44531,0.46875 -0.0703,0.9609375 -0.36328,1.93359375 -1.38281,1.93359375 -0.97266,0 -1.19532,-0.93749995 -1.3125,-1.80468745 -0.17578,-1.1953125 -0.19922,-2.3789063 -0.46875,-3.5507813 -0.32813,-1.3828125 -1.26563,-2.3085937 -2.57813,-2.8476562 0.6211,-0.1757813 1.20703,-0.4453125 1.73438,-0.796875 1.00781,-0.6445313 2.05078,-1.7343748 2.05078,-3.2695308 0,-0.84375 -0.31641,-1.640625 -0.86719,-2.332032 -1.06641,-1.359375 -3.07031,-2.332031 -5.44922,-2.332031 h -6.66797 c -0.1289,0 -0.22265,0.105469 -0.22265,0.222656 v 0.644532 c 0,0.128906 0.0937,0.222656 0.22265,0.222656 0.42188,0 0.73828,0 1.01953,0.03516 0.6211,0.02344 0.73829,0.199219 0.73829,0.867188 v 13.4062495 c 0,0.3984375 0,0.7148438 -0.29297,0.8203125 -0.42188,0.1171875 -0.84375,0.0703125 -1.46485,0.0703125 -0.1289,0 -0.22265,0.09375 -0.22265,0.22265625 V -5e-4 c 0,0.12890625 0.0937,0.22265625 0.22265,0.22265625 0.71485,0 2.00391,-0.046875 2.77735,-0.046875 0.76172,0 2.05078,0.046875 2.77734,0.046875 0.11719,0 0.22266,-0.09375 0.22266,-0.22265625 v -0.64453125 c 0,-0.12890625 -0.10547,-0.22265625 -0.22266,-0.22265625 -0.42187,0 -0.75,0 -1.01953,-0.0234375 -0.62109,-0.0234375 -0.73828,-0.1992187 -0.73828,-0.8671875 v -6.2929687 h 2.67187 c 1.51172,0 2.40235,0.609375 2.92969,1.453125 0.38672,0.6445312 0.38672,1.4414062 0.38672,2.53125 0,0.023437 0,0.023437 0,0.046875 0,1.0195312 -0.0234,1.7929687 0.22266,2.5078125 0.48046,1.31249995 1.93359,2.13281245 3.5039,2.13281245 0.69141,0 1.1836,-0.26953125 1.51172,-0.62109375 0.44531,-0.4453125 0.80859,-1.2421875 0.80859,-2.0859375 0,0 0,0 0,-0.023437 0,-0.2929687 -0.11718,-0.515625 -0.44531,-0.5156255 z m 2.67188,0.375 c 0,-0.234375 0.0234,-0.5273437 0.11718,-0.8203125 0.51563,-1.7578125 2.42579,-2.4609375 4.53516,-2.6015625 v 2.2265625 c 0,1.1132813 -0.44531,1.9335938 -1.04297,2.4257813 -0.39844,0.32812495 -0.98437,0.5976562 -1.6289,0.5976562 -1.08985,0 -1.98047,-0.7382812 -1.98047,-1.828125 z m 7.20703,1.55859375 c -0.86719,0 -0.79688,-1.26562495 -0.79688,-2.15624995 v -3.5976563 c 0,-0.4921875 0,-0.9140625 -0.0234,-1.3125 -0.0937,-1.0898437 -0.44532,-1.7109375 -1.08985,-2.3085935 -0.9375,-0.867188 -2.10937,-1.113281 -2.97656,-1.113281 -1.38281,0 -2.51953,0.714843 -3.11719,1.7343745 -0.30469,0.4921875 -0.46875,1.0664063 -0.46875,1.6640625 0,0.7148438 0.42188,1.1835938 1.11328,1.1835938 0.64453,0 1.11328,-0.4453125 1.11328,-1.1132813 0,-0.6679687 -0.44531,-1.0898437 -1.0664,-1.1132812 0.39844,-0.8203125 1.24219,-1.5117183 2.3789,-1.5117183 1.3125,0 2.37891,1.289062 2.37891,2.9531245 v 0.8671875 c -1.66406,0.070312 -3.29297,0.3632813 -4.48828,1.0078125 -1.11328,0.5976563 -2.13281,1.7109375 -2.13281,3.2578125 0,0.2929688 0.0586,0.5859375 0.15234,0.8320313 0.46875,1.21874995 1.95703,1.8398437 3.62109,1.8398437 1.40625,0 2.47266,-0.73828125 3.07032,-1.6875 0.24609,0.8203125 0.86718,1.58203125 1.93359,1.58203125 0.15234,0 0.35156,-0.0234375 0.57422,-0.09375 0.96094,-0.29296875 1.48828,-1.13671875 1.48828,-2.42578125 v -1.3945312 c 0,-0.1171875 -0.10547,-0.2226563 -0.22266,-0.2226563 h -0.44531 c -0.1289,0 -0.22265,0.1054688 -0.22265,0.2226563 v 1.4179687 c 0,0.7148438 -0.12891,1.48828125 -0.77344,1.48828125 z m 8.79199,-10.38281275 c -1.53516,0 -2.53125,0.84375 -3.11719,1.7812503 v -7.9101563 c 0,-0.117187 -0.10547,-0.222656 -0.23437,-0.222656 0,0 -0.0234,0 -0.0234,0 l -2.94141,0.269531 c -0.10546,0 -0.19921,0.105469 -0.19921,0.222656 v 0.644532 c 0,0.128906 0.0937,0.222656 0.22265,0.222656 0.33985,0 0.64453,0 0.84375,0.05859 0.58594,0.07031 0.6211,0.398437 0.6211,1.066406 v 13.2304685 c 0,0.1523438 0,0.2929688 -0.0352,0.3984375 -0.0469,0.59765625 -0.76172,0.4453125 -1.42969,0.4453125 -0.1289,0 -0.22265,0.09375 -0.22265,0.22265625 V -5e-4 c 0,0.12890625 0.0937,0.22265625 0.22265,0.22265625 0.59766,0 1.6875,-0.046875 2.33203,-0.046875 0.64453,0 1.75782,0.046875 2.35547,0.046875 0.11719,0 0.22266,-0.09375 0.22266,-0.22265625 v -0.64453125 c 0,-0.12890625 -0.10547,-0.22265625 -0.22266,-0.22265625 -0.39844,0 -0.70312,0 -0.90234,-0.0234375 -0.53906,-0.046875 -0.5625,-0.2460937 -0.5625,-0.8203125 V -6.46925 c 0,-0.6210937 0.0937,-1.21875 0.29297,-1.7109375 0.39843,-1.0429687 1.24218,-2.0507815 2.60156,-2.0507815 1.46484,0 1.81641,1.136719 1.81641,2.6015628 v 5.9179687 c 0,0.1523438 0,0.2929688 -0.0352,0.3984375 -0.0469,0.59765625 -0.76172,0.4453125 -1.42969,0.4453125 -0.1289,0 -0.22265,0.09375 -0.22265,0.22265625 V -5e-4 c 0,0.12890625 0.0937,0.22265625 0.22265,0.22265625 0.59766,0 1.6875,-0.046875 2.33203,-0.046875 0.64453,0 1.75782,0 2.32032,0.046875 0,0 0.0352,0 0.0352,0 0.11719,0 0.22266,-0.09375 0.22266,-0.22265625 v -0.64453125 c 0,-0.12890625 -0.10547,-0.22265625 -0.22266,-0.22265625 -0.39844,0 -0.70312,0 -0.90234,-0.0234375 -0.53906,-0.046875 -0.5625,-0.2460937 -0.5625,-0.8203125 v -5.8242187 c 0,-2.2851563 -1.06641,-3.5390628 -3.39844,-3.5390628 z m 8.0332,8.824219 c 0,-0.234375 0.0234,-0.5273437 0.11719,-0.8203125 0.51563,-1.7578125 2.42578,-2.4609375 4.53516,-2.6015625 v 2.2265625 c 0,1.1132813 -0.44532,1.9335938 -1.04297,2.4257813 -0.39844,0.32812495 -0.98438,0.5976562 -1.62891,0.5976562 -1.08984,0 -1.98047,-0.7382812 -1.98047,-1.828125 z m 7.20703,1.55859375 c -0.86718,0 -0.79687,-1.26562495 -0.79687,-2.15624995 v -3.5976563 c 0,-0.4921875 0,-0.9140625 -0.0234,-1.3125 -0.0937,-1.0898437 -0.44531,-1.7109375 -1.08984,-2.3085935 -0.9375,-0.867188 -2.10938,-1.113281 -2.97656,-1.113281 -1.38282,0 -2.51954,0.714843 -3.11719,1.7343745 -0.30469,0.4921875 -0.46875,1.0664063 -0.46875,1.6640625 0,0.7148438 0.42187,1.1835938 1.11328,1.1835938 0.64453,0 1.11328,-0.4453125 1.11328,-1.1132813 0,-0.6679687 -0.44531,-1.0898437 -1.06641,-1.1132812 0.39844,-0.8203125 1.24219,-1.5117183 2.37891,-1.5117183 1.3125,0 2.37891,1.289062 2.37891,2.9531245 v 0.8671875 c -1.66407,0.070312 -3.29297,0.3632813 -4.48828,1.0078125 -1.11329,0.5976563 -2.13282,1.7109375 -2.13282,3.2578125 0,0.2929688 0.0586,0.5859375 0.15235,0.8320313 0.46875,1.21874995 1.95703,1.8398437 3.62109,1.8398437 1.40625,0 2.47266,-0.73828125 3.07031,-1.6875 0.2461,0.8203125 0.86719,1.58203125 1.9336,1.58203125 0.15234,0 0.35156,-0.0234375 0.57422,-0.09375 0.96093,-0.29296875 1.48828,-1.13671875 1.48828,-2.42578125 v -1.3945312 c 0,-0.1171875 -0.10547,-0.2226563 -0.22266,-0.2226563 h -0.44531 c -0.12891,0 -0.22266,0.1054688 -0.22266,0.2226563 v 1.4179687 c 0,0.7148438 -0.1289,1.48828125 -0.77344,1.48828125 z M 221.11912,-11.074719 c -1.64063,0 -2.67188,0.9375 -3.2461,2.0039065 -0.42187,-1.3124995 -1.51172,-2.0039065 -3.22265,-2.0039065 -1.5586,0 -2.55469,0.867188 -3.15235,1.8281253 v -1.6054683 c 0,-0.128907 -0.0937,-0.222657 -0.22265,-0.222657 0,0 -0.0234,0 -0.0234,0 l -2.91797,0.269532 c -0.10547,0 -0.19922,0.09375 -0.19922,0.222656 V -9.938 c 0,0.1171875 0.0937,0.2226563 0.22266,0.2226563 0.33984,0 0.64453,0 0.84375,0.046875 0.58594,0.070312 0.62109,0.3984375 0.62109,1.0664062 v 6.890625 c 0,0.1523438 0,0.2929688 -0.0351,0.3984375 -0.0469,0.59765625 -0.76172,0.4453125 -1.42969,0.4453125 -0.12891,0 -0.22266,0.09375 -0.22266,0.22265625 V -5e-4 c 0,0.12890625 0.0937,0.22265625 0.22266,0.22265625 0.59765,0 1.6875,-0.046875 2.33203,-0.046875 0.64453,0 1.75781,0.046875 2.35547,0.046875 0.11719,0 0.22265,-0.09375 0.22265,-0.22265625 v -0.64453125 c 0,-0.12890625 -0.10546,-0.22265625 -0.22265,-0.22265625 -0.39844,0 -0.70313,0 -0.90235,-0.0234375 -0.53906,-0.046875 -0.5625,-0.2460937 -0.5625,-0.8203125 V -6.46925 c 0,-0.6210937 0.0937,-1.21875 0.29297,-1.7109375 0.39844,-1.0429687 1.24219,-2.0507815 2.60157,-2.0507815 1.46484,0 1.8164,1.136719 1.8164,2.6015628 v 5.9179687 c 0,0.1523438 0,0.2929688 -0.0351,0.3984375 -0.0469,0.59765625 -0.76172,0.4453125 -1.42969,0.4453125 -0.12891,0 -0.22266,0.09375 -0.22266,0.22265625 V -5e-4 c 0,0.12890625 0.0937,0.22265625 0.22266,0.22265625 0.59765,0 1.6875,-0.046875 2.33203,-0.046875 0.64453,0 1.75781,0.046875 2.35547,0.046875 0.11719,0 0.22265,-0.09375 0.22265,-0.22265625 v -0.64453125 c 0,-0.12890625 -0.10546,-0.22265625 -0.22265,-0.22265625 -0.39844,0 -0.70313,0 -0.90235,-0.0234375 -0.53906,-0.046875 -0.5625,-0.2460937 -0.5625,-0.8203125 V -6.46925 c 0,-0.6210937 0.0937,-1.21875 0.29297,-1.7109375 0.39844,-1.0429687 1.24219,-2.0507815 2.60157,-2.0507815 1.46484,0 1.8164,1.136719 1.8164,2.6015628 v 5.9179687 c 0,0.1523438 0,0.2929688 -0.0351,0.3984375 -0.0469,0.59765625 -0.76172,0.4453125 -1.42969,0.4453125 -0.12891,0 -0.22266,0.09375 -0.22266,0.22265625 V -5e-4 c 0,0.12890625 0.0937,0.22265625 0.22266,0.22265625 0.59765,0 1.6875,-0.046875 2.33203,-0.046875 0.64453,0 1.75781,0 2.32031,0.046875 0,0 0.0352,0 0.0352,0 0.11719,0 0.22265,-0.09375 0.22265,-0.22265625 v -0.64453125 c 0,-0.12890625 -0.10546,-0.22265625 -0.22265,-0.22265625 -0.39844,0 -0.70313,0 -0.90235,-0.0234375 -0.53906,-0.046875 -0.5625,-0.2460937 -0.5625,-0.8203125 v -5.8242187 c 0,-2.3085938 -1.04296,-3.5390628 -3.39843,-3.5390628 z m 8.04199,8.824219 c 0,-0.234375 0.0234,-0.5273437 0.11719,-0.8203125 0.51562,-1.7578125 2.42578,-2.4609375 4.53515,-2.6015625 v 2.2265625 c 0,1.1132813 -0.44531,1.9335938 -1.04297,2.4257813 -0.39843,0.32812495 -0.98437,0.5976562 -1.6289,0.5976562 -1.08985,0 -1.98047,-0.7382812 -1.98047,-1.828125 z m 7.20703,1.55859375 c -0.86719,0 -0.79687,-1.26562495 -0.79687,-2.15624995 v -3.5976563 c 0,-0.4921875 0,-0.9140625 -0.0234,-1.3125 -0.0937,-1.0898437 -0.44531,-1.7109375 -1.08985,-2.3085935 -0.9375,-0.867188 -2.10937,-1.113281 -2.97656,-1.113281 -1.38281,0 -2.51953,0.714843 -3.11719,1.7343745 -0.30468,0.4921875 -0.46875,1.0664063 -0.46875,1.6640625 0,0.7148438 0.42188,1.1835938 1.11329,1.1835938 0.64453,0 1.11328,-0.4453125 1.11328,-1.1132813 0,-0.6679687 -0.44532,-1.0898437 -1.06641,-1.1132812 0.39844,-0.8203125 1.24219,-1.5117183 2.37891,-1.5117183 1.3125,0 2.3789,1.289062 2.3789,2.9531245 v 0.8671875 c -1.66406,0.070312 -3.29297,0.3632813 -4.48828,1.0078125 -1.11328,0.5976563 -2.13281,1.7109375 -2.13281,3.2578125 0,0.2929688 0.0586,0.5859375 0.15234,0.8320313 0.46875,1.21874995 1.95703,1.8398437 3.6211,1.8398437 1.40625,0 2.47265,-0.73828125 3.07031,-1.6875 0.24609,0.8203125 0.86719,1.58203125 1.93359,1.58203125 0.15235,0 0.35157,-0.0234375 0.57422,-0.09375 0.96094,-0.29296875 1.48828,-1.13671875 1.48828,-2.42578125 v -1.3945312 c 0,-0.1171875 -0.10547,-0.2226563 -0.22265,-0.2226563 h -0.44532 c -0.1289,0 -0.22265,0.1054688 -0.22265,0.2226563 v 1.4179687 c 0,0.7148438 -0.12891,1.48828125 -0.77344,1.48828125 z m 13.65234,0.9140625 c 0.11719,0 0.22266,-0.09375 0.22266,-0.22265625 v -0.64453125 c 0,-0.12890625 -0.10547,-0.22265625 -0.22266,-0.22265625 -0.39843,0 -0.70312,0 -0.90234,-0.0234375 -0.53906,-0.046875 -0.5625,-0.2460937 -0.5625,-0.8203125 v -5.8242187 c 0,-2.2851563 -1.06641,-3.5390628 -3.39844,-3.5390628 -1.55859,0 -2.55468,0.867188 -3.15234,1.8281253 v -1.6054683 c 0,-0.128907 -0.0937,-0.222657 -0.22266,-0.222657 0,0 -0.0234,0 -0.0234,0 l -2.91797,0.269532 c -0.10547,0 -0.19922,0.09375 -0.19922,0.222656 V -9.938 c 0,0.1171875 0.0937,0.2226563 0.22265,0.2226563 0.33985,0 0.64454,0 0.84375,0.046875 0.58594,0.070312 0.6211,0.3984375 0.6211,1.0664062 v 6.890625 c 0,0.1523438 0,0.2929688 -0.0352,0.3984375 -0.0469,0.59765625 -0.76172,0.4453125 -1.42969,0.4453125 -0.1289,0 -0.22265,0.09375 -0.22265,0.22265625 V -5e-4 c 0,0.12890625 0.0937,0.22265625 0.22265,0.22265625 0.59766,0 1.6875,-0.046875 2.33204,-0.046875 0.64453,0 1.75781,0.046875 2.35546,0.046875 0.11719,0 0.22266,-0.09375 0.22266,-0.22265625 v -0.64453125 c 0,-0.12890625 -0.10547,-0.22265625 -0.22266,-0.22265625 -0.39843,0 -0.70312,0 -0.90234,-0.0234375 -0.53906,-0.046875 -0.5625,-0.2460937 -0.5625,-0.8203125 V -6.46925 c 0,-0.6210937 0.0937,-1.21875 0.29297,-1.7109375 0.39844,-1.0429687 1.24219,-2.0507815 2.60156,-2.0507815 1.46485,0 1.81641,1.136719 1.81641,2.6015628 v 5.9179687 c 0,0.1523438 0,0.2929688 -0.0352,0.3984375 -0.0469,0.59765625 -0.76172,0.4453125 -1.42969,0.4453125 -0.1289,0 -0.22265,0.09375 -0.22265,0.22265625 V -5e-4 c 0,0.12890625 0.0937,0.22265625 0.22265,0.22265625 0.59766,0 1.6875,-0.046875 2.33204,-0.046875 0.64453,0 1.75781,0.046875 2.35546,0.046875 z M 253.79978,-2.2505 c -0.69141,0 -1.23047,0.515625 -1.23047,1.2304688 0,0.72656245 0.51563,1.24218745 1.23047,1.24218745 0.70313,0 1.24219,-0.515625 1.24219,-1.24218745 0,-0.7148438 -0.51563,-1.2304688 -1.24219,-1.2304688 z m 0,0"
       style="fill:#f0f6fc;fill-opacity:1;fill-rule:nonzero;stroke:none"
       aria-label="Hi,I’mFarhanRahaman."
       transform="matrix(1.3333333,0,0,1.3333333,11.334667,126.75067)" />
  </g>
</svg>
