<?xml version="1.0" encoding="UTF-8" standalone="no"?>
<svg
   width="48"
   height="48"
   viewBox="0 0 60 60"
   version="1.1"
   id="svg5"
   xml:space="preserve"
   inkscape:version="1.2.2 (b0a8486541, 2022-12-01)"
   sodipodi:docname="langchain.svg"
   xmlns:inkscape="http://www.inkscape.org/namespaces/inkscape"
   xmlns:sodipodi="http://sodipodi.sourceforge.net/DTD/sodipodi-0.dtd"
   xmlns="http://www.w3.org/2000/svg"
   xmlns:svg="http://www.w3.org/2000/svg"><sodipodi:namedview
     id="namedview7"
     pagecolor="#ffffff"
     bordercolor="#000000"
     borderopacity="0.25"
     inkscape:showpageshadow="2"
     inkscape:pageopacity="0.0"
     inkscape:pagecheckerboard="true"
     inkscape:deskcolor="#d1d1d1"
     inkscape:document-units="mm"
     showgrid="false"
     inkscape:zoom="1.3291063"
     inkscape:cx="112.4816"
     inkscape:cy="135.05316"
     inkscape:window-width="1536"
     inkscape:window-height="827"
     inkscape:window-x="0"
     inkscape:window-y="0"
     inkscape:window-maximized="1"
     inkscape:current-layer="layer1" /><defs
     id="defs2" /><g
     inkscape:label="Layer 1"
     inkscape:groupmode="layer"
     id="layer1"
     transform="translate(-77,-156.78123)"><title
       id="title144">LangChain</title><rect
       width="60"
       height="60"
       rx="14.062501"
       fill="#f0db4f"
       id="rect3806"
       x="77"
       y="156.78123"
       style="fill:#1c3c3c;fill-opacity:1;stroke-width:0.234375" /><g
       id="g1361"
       transform="matrix(1.2299044,0,0,1.2299044,33.898614,-7.0825968)"><rect
         style="fill:#ffffff;fill-opacity:1;stroke:#732e08;stroke-width:0.2;stroke-linecap:round;stroke-miterlimit:3.4;paint-order:markers fill stroke"
         id="rect542"
         width="38.943153"
         height="20.387108"
         x="39.349575"
         y="147.98152"
         rx="5.8645458"
         ry="4.9964142" /><path
         d="m 45.085921,144.71087 c -7.488736,0 -6.468502,5.4397 -6.468502,12.90817 0,7.46847 -1.02001,14.18174 6.468502,14.18174 h 26.282431 c 7.488729,0 8.573455,-5.84261 8.573455,-13.31108 0,-7.46847 -1.084958,-13.77883 -8.573455,-13.77883 z m -0.270425,4.30564 c 1.097864,0.0273 2.271427,0.55547 2.834835,1.38693 0.817895,1.02256 1.06399,2.37559 1.991692,3.32515 1.247945,1.3624 2.670031,2.56204 3.821571,4.01281 1.089358,1.32585 1.86744,2.88091 2.546632,4.44821 0.276773,0.52016 0.279963,1.15838 0.69032,1.60268 0.202125,0.26768 1.19051,0.9983 0.976039,1.25702 0.12331,0.26859 1.047048,0.63711 0.726615,0.89678 -0.432946,0.0892 -0.919492,0.10601 -1.250651,-0.23901 -0.122413,0.28043 -0.407429,0.133 -0.627776,0.096 -0.01908,0.0545 -0.03763,0.10909 -0.05564,0.1639 -0.732258,0.0505 -1.28132,-0.69607 -1.630088,-1.25819 -0.692734,-0.37376 -1.479067,-0.6018 -2.186754,-0.99316 -0.04105,0.6447 0.10065,1.44411 -0.514418,1.86007 -0.0319,1.23927 1.878598,0.14658 2.053596,1.06982 -0.135686,0.0182 -0.286344,-0.0273 -0.395143,0.0842 -0.498591,0.48392 -1.069999,-0.36602 -1.644527,-0.0182 -0.7714,0.38696 -0.848022,0.70362 -1.802892,0.78356 -0.05323,-0.0842 -0.0319,-0.13195 0.01338,-0.18072 0.268593,-0.31139 0.288164,-0.67837 0.747331,-0.81133 -0.4726,-0.0755 -0.868296,0.18529 -1.266217,0.3915 -0.517295,0.21124 -0.513059,-0.47636 -1.30895,0.0319 -0.08825,-0.0755 -0.04648,-0.13702 0.004,-0.19257 0.202145,-0.24675 0.468133,-0.28271 0.768281,-0.2695 -1.476449,-0.82061 -2.171429,1.00363 -2.853284,0.096 -0.20485,0.0505 -0.281787,0.23808 -0.411089,0.36783 -0.111527,-0.12197 -0.02728,-0.26996 -0.02281,-0.41336 -0.133,-0.0588 -0.301827,-0.0911 -0.262673,-0.30364 -0.260853,-0.0873 -0.442951,0.0675 -0.636887,0.21214 -0.17527,-0.13569 0.118386,-0.33234 0.172987,-0.47303 0.156154,-0.27088 0.512149,-0.0588 0.692741,-0.25085 0.513522,-0.29135 1.229256,0.18074 1.816009,0.10109 0.452053,0.0592 1.011909,-0.40653 0.785203,-0.86846 -0.483465,-0.61612 -0.398784,-1.42214 -0.409721,-2.15904 -0.05967,-0.42929 -1.093402,-0.97581 -1.392223,-1.43897 -0.369646,-0.41745 -0.656905,-0.90125 -0.944896,-1.37665 -1.039044,-2.00594 -0.712094,-4.58383 -2.021326,-6.44614 -0.592352,0.32641 -1.363938,0.17254 -1.874536,-0.26494 -0.275883,0.25084 -0.287721,0.5782 -0.309564,0.92654 -0.661386,-0.65981 -0.577486,-1.90596 -0.04876,-2.63991 0.215781,-0.28951 0.473666,-0.52852 0.761567,-0.73812 0.06471,-0.0505 0.08692,-0.0934 0.08559,-0.16661 0.261316,-1.17292 1.283602,-1.64593 2.381422,-1.6183 m 27.628996,1.02435 c 1.241485,0 2.406368,0.4806 3.282432,1.35438 0.876064,0.87366 1.358384,2.03649 1.358384,3.27446 0,1.23808 -0.482591,2.40054 -1.358384,3.27302 v 0.001 l -2.008668,2.00301 c -0.534743,0.53391 -1.191989,0.92887 -1.914418,1.15046 l -0.03642,0.009 -0.01338,0.0319 c -0.231211,0.61182 -0.59119,1.16681 -1.05556,1.62739 l -2.008165,2.00307 c -0.876074,0.87379 -2.042084,1.35452 -3.283528,1.35452 -1.241495,0 -2.406367,-0.4814 -3.282431,-1.35452 -1.810448,-1.80534 -1.810448,-4.74193 0,-6.54746 l 2.008426,-2.00304 c 0.532882,-0.53326 1.189197,-0.92668 1.910666,-1.14533 l 0.03642,-0.009 0.01338,-0.0319 c 0.23242,-0.61372 0.593205,-1.17074 1.058226,-1.63381 l 2.008206,-2.00316 c 0.876014,-0.87379 2.042254,-1.35452 3.283518,-1.35452 z m 0,1.99641 c -0.700507,-0.002 -1.372921,0.27527 -1.867901,0.77096 l -2.008176,2.00307 c -0.542802,0.54253 -0.821544,1.2951 -0.763118,2.06032 l 0.01338,0.12703 c 0.07143,0.59081 0.331873,1.12327 0.751336,1.54032 0.289522,0.28862 0.608607,0.47048 0.99566,0.5984 0.02103,0.11644 0.0317,0.23451 0.0319,0.35283 0.002,0.52681 -0.207312,1.03244 -0.581018,1.40376 l -0.12346,0.12375 c -0.670881,-0.22896 -1.230286,-0.56303 -1.735557,-1.06712 -0.668113,-0.66324 -1.115997,-1.51597 -1.282869,-2.44247 l -0.02284,-0.12882 -0.102873,0.0842 c -0.06822,0.0553 -0.133409,0.11429 -0.195292,0.17663 l -2.009534,2.00301 c -1.029489,1.02657 -1.029489,2.69904 0,3.72557 0.514558,0.51343 1.191366,0.77095 1.86923,0.77095 0.677622,0 1.353242,-0.25765 1.867901,-0.77095 l 2.008377,-2.00302 c 1.029489,-1.02666 1.029489,-2.6974 0,-3.72556 -0.274576,-0.27378 -0.606799,-0.48283 -0.972439,-0.61189 -0.0203,-0.11852 -0.03097,-0.23849 -0.0319,-0.35873 0,-0.57652 0.228084,-1.12454 0.646028,-1.54169 0.6723,0.229 1.269306,0.60011 1.773038,1.10233 0.669602,0.6683 1.112108,1.51204 1.281772,2.44242 l 0.02284,0.12882 0.101535,-0.0842 c 0.069,-0.0553 0.134953,-0.11422 0.197576,-0.17662 l 2.008609,-2.00331 c 1.029268,-1.02657 1.030575,-2.69985 0,-3.72664 -0.495357,-0.49608 -1.168407,-0.77365 -1.869452,-0.77097 z m -22.208567,11.48335 -9.97e-4,9.9e-4 c -0.176628,0.68509 -0.233538,1.85234 -1.126808,1.88617 -0.07335,0.39559 0.273604,0.54456 0.59126,0.41747 0.314125,-0.14389 0.463393,0.11285 0.569377,0.36873 0.484784,0.0675 1.201206,-0.16161 1.228333,-0.73475 -0.723747,-0.41564 -0.947081,-1.20654 -1.260834,-1.93938"
         id="path146"
         style="fill:#1c3c3c;fill-opacity:1;stroke-width:2.22687"
         sodipodi:nodetypes="ssssssscccccccccccccccccccccccccccccccccccccccccccccsccccccccscccccccscccccccccccccccccccssccccccccccscccccccccc" /></g></g></svg>
